<?xml version="1.0" encoding="iso-8859-1"?>
<!-- Generator: Adobe Illustrator 17.1.0, SVG Export Plug-In . SVG Version: 6.00 Build 0)  -->
<!DOCTYPE svg PUBLIC "-//W3C//DTD SVG 1.1//EN" "http://www.w3.org/Graphics/SVG/1.1/DTD/svg11.dtd">
<svg version="1.1" id="Capa_1" xmlns="http://www.w3.org/2000/svg" xmlns:xlink="http://www.w3.org/1999/xlink" x="0px" y="0px"
	 viewBox="0 0 442 442" style="enable-background:new 0 0 442 442;" xml:space="preserve">
<g>
	<path d="M368.98,132.017c-5.535-0.332-10.238,3.903-10.552,9.416L344.76,382H97.24L83.572,141.433
		c-0.313-5.514-4.998-9.748-10.552-9.416c-5.514,0.313-9.729,5.037-9.417,10.551l14.08,247.8C78.032,396.455,83.903,402,90.001,402
		h262c6.097,0,11.968-5.545,12.316-11.638l14.08-247.795C378.71,137.054,374.494,132.329,368.98,132.017z"/>
	<path d="M406.853,84.863C397.797,75.278,385.419,70,372,70h-24.164C320.413,26.678,272.343,0,221.001,0
		c-51.342,0-99.412,26.678-126.837,70H70.001c-13.419,0-25.797,5.278-34.853,14.863c-9.056,9.585-13.624,22.242-12.863,35.64
		l15.462,272.129C39.293,419.853,62.735,442,90.001,442h262c27.266,0,50.706-22.147,52.253-49.368l15.462-272.129
		C420.476,107.105,415.908,94.448,406.853,84.863z M399.747,119.368l-15.462,272.129C383.346,408.031,368.561,422,352,422h-262
		c-16.562,0-31.346-13.969-32.285-30.503L42.253,119.368c-0.446-7.849,2.193-15.225,7.432-20.77C54.924,93.054,62.139,90,70.001,90
		h29.793c3.566,0,6.862-1.899,8.651-4.984C131.696,44.913,174.825,20,221.001,20c46.177,0,89.305,24.912,112.555,65.016
		c1.789,3.085,5.085,4.984,8.651,4.984H372c7.861,0,15.075,3.054,20.315,8.599C397.553,104.144,400.193,111.52,399.747,119.368z"/>
	<path d="M121.001,160h200c5.523,0,10-4.477,10-10c0-60.654-49.346-110-110-110s-110,49.346-110,110
		C111.001,155.523,115.478,160,121.001,160z M221.001,60c46.246,0,84.457,35.063,89.448,80h-79.448v-40c0-5.522-4.478-10-10-10
		c-5.523,0-10,4.478-10,10v40h-79.448C136.544,95.063,174.754,60,221.001,60z"/>
</g>
<g>
</g>
<g>
</g>
<g>
</g>
<g>
</g>
<g>
</g>
<g>
</g>
<g>
</g>
<g>
</g>
<g>
</g>
<g>
</g>
<g>
</g>
<g>
</g>
<g>
</g>
<g>
</g>
<g>
</g>
</svg>
