<?xml version="1.0" encoding="UTF-8" standalone="no"?>
<!-- Generator: Adobe Illustrator 19.0.0, SVG Export Plug-In . SVG Version: 6.00 Build 0)  -->

<svg
   xmlns:dc="http://purl.org/dc/elements/1.1/"
   xmlns:cc="http://creativecommons.org/ns#"
   xmlns:rdf="http://www.w3.org/1999/02/22-rdf-syntax-ns#"
   xmlns:svg="http://www.w3.org/2000/svg"
   xmlns="http://www.w3.org/2000/svg"
   xmlns:sodipodi="http://sodipodi.sourceforge.net/DTD/sodipodi-0.dtd"
   xmlns:inkscape="http://www.inkscape.org/namespaces/inkscape"
   version="1.1"
   id="Layer_1"
   x="0px"
   y="0px"
   viewBox="0 0 448 448"
   style="enable-background:new 0 0 448 448;"
   xml:space="preserve"
   sodipodi:docname="logo_final.svg"
   inkscape:version="0.92.1 r"
   inkscape:export-filename="/home/dactyllo/Nodeground/bmi_calc/elements/logo.png"
   inkscape:export-xdpi="1000"
   inkscape:export-ydpi="1000"><metadata
     id="metadata67"><rdf:RDF><cc:Work
         rdf:about=""><dc:format>image/svg+xml</dc:format><dc:type
           rdf:resource="http://purl.org/dc/dcmitype/StillImage" /><dc:title></dc:title></cc:Work></rdf:RDF></metadata><defs
     id="defs65" /><sodipodi:namedview
     pagecolor="#ffffff"
     bordercolor="#666666"
     borderopacity="1"
     objecttolerance="10"
     gridtolerance="10"
     guidetolerance="10"
     inkscape:pageopacity="0"
     inkscape:pageshadow="2"
     inkscape:window-width="1920"
     inkscape:window-height="1009"
     id="namedview63"
     showgrid="false"
     inkscape:zoom="0.37249375"
     inkscape:cx="39.433145"
     inkscape:cy="224"
     inkscape:window-x="0"
     inkscape:window-y="29"
     inkscape:window-maximized="1"
     inkscape:current-layer="g24" /><g
     transform="translate(0 -1020.36)"
     id="g30"><g
       shape-rendering="auto"
       image-rendering="auto"
       color-rendering="auto"
       color-interpolation="sRGB"
       id="g24"><path
         style="fill:#664847;fill-opacity:1"
         d="M 82.687,1020.36 C 37.029,1020.36 0,1057.387 0,1103.047 v 200.5 c 35.720244,2.8654 0.38408762,-10.3826 0,0 v 52 30.125 c 0,45.66 37.029,82.688 82.687,82.688 h 282.625 c 45.659,0 82.687,-37.027 82.688,-82.688 v -148.969 c -22.75851,-10.8458 -26.79885,0 0,0 v -133.656 c 0,-45.658 -37.028,-82.687 -82.688,-82.687 z"
         id="path2"
         inkscape:connector-curvature="0"
         sodipodi:nodetypes="sscccssscccsss" /><path
         style="fill:#e36e40;fill-opacity:1"
         d="M82.675,1036.299h282.625c37.072,0,66.625,29.678,66.625,66.748v77.342h-416v-77.342    C15.925,1065.975,45.604,1036.298,82.675,1036.299L82.675,1036.299z"
         id="path4" /><path
         style="fill:#fcb95d;fill-opacity:1"
         d="M 17.693021,1196.36 H 433.69302 v 189.313 c 0,37.074 -29.553,66.75 -66.625,66.75 H 84.443021 c -37.071,0 -66.75,-29.678 -66.75,-66.75 v -56.2415 z"
         id="path6"
         inkscape:connector-curvature="0"
         sodipodi:nodetypes="ccsssscc" /><g
         id="g18"><path
           style="fill:#664847;fill-opacity:1"
           d="M223.923,1052.376c-19.071,0-45.148,4.953-66.968,9.803c-21.821,4.852-39.095,9.686-39.095,9.686     c-4.159,1.141-6.665,5.373-5.666,9.568l18.898,76.889c1.032,4.037,4.988,6.605,9.094,5.906c0,0,56.996-9.447,83.74-9.447     s83.74,9.447,83.74,9.447c4.148,0.768,8.179-1.816,9.213-5.906l18.898-76.889c0.999-4.195-1.507-8.428-5.666-9.568     c0,0-17.392-4.836-39.213-9.686c-21.82-4.85-47.898-9.803-66.968-9.803H223.923z"
           id="path10" /><path
           style="fill:#fff7af;fill-opacity:1"
           d="M223.923,1068.321c16.164,0,42.172,4.699,63.543,9.447c17.158,3.816,25.84,6.207,30.827,7.561     l-15.355,62.361c-8.27-1.393-51.295-8.857-79.016-8.857c-27.718,0-70.618,7.461-78.898,8.857l-15.354-62.361     c4.989-1.359,13.668-3.744,30.826-7.561C181.868,1073.02,207.758,1068.321,223.923,1068.321z"
           id="path12" /><path
           style="fill:#664847;fill-opacity:1"
           d="M216.009,1100.329v48.07h15.945v-48.07H216.009L216.009,1100.329z"
           id="path16" /></g><text
         xml:space="preserve"
         style="font-style:normal;font-variant:normal;font-weight:bold;font-stretch:normal;font-size:40px;line-height:125%;font-family:'Nimbus Mono PS';-inkscape-font-specification:'Nimbus Mono PS Bold';letter-spacing:0px;word-spacing:0px;fill:#664847;fill-opacity:1;stroke:none;stroke-width:1px;stroke-linecap:butt;stroke-linejoin:miter;stroke-opacity:1"
         x="48.45602"
         y="1378.6315"
         id="text4548"><tspan
           sodipodi:role="line"
           id="tspan4546"
           x="48.45602"
           y="1378.6315"
           style="font-style:normal;font-variant:normal;font-weight:bold;font-stretch:normal;font-size:192px;font-family:'Nimbus Mono PS';-inkscape-font-specification:'Nimbus Mono PS Bold';fill:#664847;fill-opacity:1">IMC</tspan></text>
</g></g><g
     id="g32" /><g
     id="g34" /><g
     id="g36" /><g
     id="g38" /><g
     id="g40" /><g
     id="g42" /><g
     id="g44" /><g
     id="g46" /><g
     id="g48" /><g
     id="g50" /><g
     id="g52" /><g
     id="g54" /><g
     id="g56" /><g
     id="g58" /><g
     id="g60" /></svg>