<?xml version="1.0" encoding="UTF-8" standalone="no"?>
<!-- Generator: Adobe Illustrator 19.0.0, SVG Export Plug-In . SVG Version: 6.00 Build 0)  -->

<svg
   xmlns:dc="http://purl.org/dc/elements/1.1/"
   xmlns:cc="http://creativecommons.org/ns#"
   xmlns:rdf="http://www.w3.org/1999/02/22-rdf-syntax-ns#"
   xmlns:svg="http://www.w3.org/2000/svg"
   xmlns="http://www.w3.org/2000/svg"
   xmlns:sodipodi="http://sodipodi.sourceforge.net/DTD/sodipodi-0.dtd"
   xmlns:inkscape="http://www.inkscape.org/namespaces/inkscape"
   version="1.1"
   id="Layer_1"
   x="0px"
   y="0px"
   viewBox="0 0 463 463"
   style="enable-background:new 0 0 463 463;"
   xml:space="preserve"
   sodipodi:docname="logo_all_raw.svg"
   inkscape:version="0.92.1 r"><metadata
     id="metadata53"><rdf:RDF><cc:Work
         rdf:about=""><dc:format>image/svg+xml</dc:format><dc:type
           rdf:resource="http://purl.org/dc/dcmitype/StillImage" /><dc:title></dc:title></cc:Work></rdf:RDF></metadata><defs
     id="defs51" /><sodipodi:namedview
     pagecolor="#ffffff"
     bordercolor="#666666"
     borderopacity="1"
     objecttolerance="10"
     gridtolerance="10"
     guidetolerance="10"
     inkscape:pageopacity="0"
     inkscape:pageshadow="2"
     inkscape:window-width="1920"
     inkscape:window-height="1009"
     id="namedview49"
     showgrid="false"
     inkscape:zoom="1.4417037"
     inkscape:cx="190.94227"
     inkscape:cy="213.02013"
     inkscape:window-x="0"
     inkscape:window-y="29"
     inkscape:window-maximized="1"
     inkscape:current-layer="g14" /><g
     transform="translate(0 -540.36)"
     id="g16"><g
       id="g14"><g
         id="g12"><path
           d="M340.4,592.91L340.4,592.91c-2.9-0.8-72.3-20.2-109-20.2c-37.9,0-107.4,19.4-110.3,20.2c-3.9,1.1-6.2,5.1-5.2,9     l19.9,79.6c0.8,3.4,3.9,5.7,7.3,5.7c0.4,0,0.8,0,1.3-0.1c0.6-0.1,58.2-9.8,87.1-9.8c27.7,0,86.5,9.8,87.1,9.9     c3.9,0.7,7.6-1.8,8.5-5.7l18.7-79.6C346.6,598.01,344.3,594.01,340.4,592.91z M314,671.31c-15.1-2.4-51.1-7.7-75.1-8.8v-40h-15     v40c-24.7,1-60.4,6.4-75.3,8.8l-16.5-65.8c18.7-4.9,70.1-17.7,99.2-17.7c28.2,0,79.5,12.9,98.1,17.8L314,671.31z"
           id="path4" /><path
           d="M377,540.41L377,540.41l-292.4,0c-23.1,0-44.5,8.7-60.2,24.4C8.6,580.61,0,601.91,0,625.01v292.4     c0,48.2,37.2,85.9,84.7,85.9h292.4c23.1,0,44.7-8.9,60.8-25.1c16.2-16.2,25.1-37.8,25.1-60.8v-292.4     C462.9,577.61,425.2,540.41,377,540.41z M447.9,917.51c0,39.1-31.8,70.9-70.9,70.9l0,0H84.6c-39.1,0-69.7-31.1-69.7-70.9v-196.6     h433V917.51z M447.9,706.01h-433v-80.9c0-39.8,29.9-69.7,69.7-69.7h0H377c39.8,0,70.9,30.6,70.9,69.7V706.01z"
           id="path6" /><path
           d="M372,969.81c31.6,0,57.3-25.7,57.3-57.3c0-4.1-3.4-7.5-7.5-7.5c-4.1,0-7.5,3.4-7.5,7.5c0,23.3-19,42.3-42.3,42.3     c-4.1,0-7.5,3.4-7.5,7.5S367.9,969.81,372,969.81z"
           id="path8" /><path
           d="M73.4,572.81c-22.7,0-41.1,18.4-41.1,41.1c0,4.1,3.4,7.5,7.5,7.5c4.1,0,7.5-3.4,7.5-7.5c0-14.6,11.5-26.1,26.1-26.1     c4.1,0,7.5-3.4,7.5-7.5S77.5,572.81,73.4,572.81z"
           id="path10" /></g><path
         inkscape:connector-curvature="0"
         d="m 90.019761,971.25299 c -31.59999,0 -57.299995,-25.7 -57.299995,-57.3 0,-4.1 3.4,-7.5 7.5,-7.5 4.1,0 7.500005,3.4 7.500005,7.5 0,23.3 19,42.3 42.29999,42.3 4.1,0 7.5,3.4 7.5,7.5 0,4.1 -3.4,7.5 -7.5,7.5 z"
         id="path8-3" /><path
         inkscape:connector-curvature="0"
         d="m 389.01658,570.51557 c 22.7,0 41.1,18.4 41.1,41.1 0,4.1 -3.4,7.5 -7.5,7.5 -4.1,0 -7.5,-3.4 -7.5,-7.5 0,-14.6 -11.5,-26.1 -26.1,-26.1 -4.1,0 -7.5,-3.4 -7.5,-7.5 0,-4.1 3.4,-7.5 7.5,-7.5 z"
         id="path10-6" /><text
         xml:space="preserve"
         style="font-style:normal;font-variant:normal;font-weight:normal;font-stretch:normal;font-size:40px;line-height:125%;font-family:Acme;-inkscape-font-specification:Acme;letter-spacing:0px;word-spacing:0px;fill:#000000;fill-opacity:1;stroke:none;stroke-width:1px;stroke-linecap:butt;stroke-linejoin:miter;stroke-opacity:1"
         x="109.3033"
         y="938.25574"
         id="text3757"><tspan
           sodipodi:role="line"
           id="tspan3755"
           x="109.3033"
           y="938.25574"
           style="font-style:normal;font-variant:normal;font-weight:300;font-stretch:ultra-condensed;font-size:192px;font-family:Antonio;-inkscape-font-specification:'Antonio Light Ultra-Condensed'">IMC</tspan></text>
</g></g><g
     id="g18" /><g
     id="g20" /><g
     id="g22" /><g
     id="g24" /><g
     id="g26" /><g
     id="g28" /><g
     id="g30" /><g
     id="g32" /><g
     id="g34" /><g
     id="g36" /><g
     id="g38" /><g
     id="g40" /><g
     id="g42" /><g
     id="g44" /><g
     id="g46" /></svg>